<?xml version="1.0" encoding="UTF-8" standalone="no"?>
<!-- Created with Inkscape (http://www.inkscape.org/) -->

<svg
   id="svg5"
   version="1.1"
   viewBox="0 0 119.0625 52.916668"
   height="200"
   width="450"
   sodipodi:docname="split.svg"
   inkscape:export-filename="/home/tobias/Documents/Blog/_assets/blogposts/AoC2021/split.png"
   inkscape:export-xdpi="300"
   inkscape:export-ydpi="300"
   inkscape:version="1.1.1 (1:1.1+202109281949+c3084ef5ed)"
   xmlns:inkscape="http://www.inkscape.org/namespaces/inkscape"
   xmlns:sodipodi="http://sodipodi.sourceforge.net/DTD/sodipodi-0.dtd"
   xmlns="http://www.w3.org/2000/svg"
   xmlns:svg="http://www.w3.org/2000/svg">
  <sodipodi:namedview
     id="namedview7"
     pagecolor="#ffffff"
     bordercolor="#666666"
     borderopacity="1.0"
     inkscape:pageshadow="2"
     inkscape:pageopacity="0.0"
     inkscape:pagecheckerboard="0"
     inkscape:document-units="mm"
     showgrid="true"
     units="px"
     width="450px"
     inkscape:zoom="2.7616442"
     inkscape:cx="420.03963"
     inkscape:cy="124.92558"
     inkscape:window-width="2560"
     inkscape:window-height="1416"
     inkscape:window-x="1920"
     inkscape:window-y="0"
     inkscape:window-maximized="1"
     inkscape:current-layer="layer1" />
  <defs
     id="defs2">
    <marker
       style="overflow:visible"
       id="TriangleOutM"
       refX="0"
       refY="0"
       orient="auto"
       inkscape:stockid="TriangleOutM"
       inkscape:isstock="true">
      <path
         transform="scale(0.4)"
         style="fill:context-stroke;fill-rule:evenodd;stroke:context-stroke;stroke-width:1pt"
         d="M 5.77,0 -2.88,5 V -5 Z"
         id="path25802" />
    </marker>
    <marker
       style="overflow:visible"
       id="marker25969"
       refX="0"
       refY="0"
       orient="auto"
       inkscape:stockid="Arrow1Lend"
       inkscape:isstock="true">
      <path
         transform="matrix(-0.8,0,0,-0.8,-10,0)"
         style="fill:context-stroke;fill-rule:evenodd;stroke:context-stroke;stroke-width:1pt"
         d="M 0,0 5,-5 -12.5,0 5,5 Z"
         id="path25967" />
    </marker>
    <marker
       style="overflow:visible"
       id="Arrow2Mend"
       refX="0"
       refY="0"
       orient="auto"
       inkscape:stockid="Arrow2Mend"
       inkscape:isstock="true">
      <path
         transform="scale(-0.6)"
         d="M 8.7185878,4.0337352 -2.2072895,0.01601326 8.7185884,-4.0017078 c -1.7454984,2.3720609 -1.7354408,5.6174519 -6e-7,8.035443 z"
         style="fill:context-stroke;fill-rule:evenodd;stroke:context-stroke;stroke-width:0.625;stroke-linejoin:round"
         id="path25684" />
    </marker>
    <marker
       style="overflow:visible"
       id="marker25951"
       refX="0"
       refY="0"
       orient="auto"
       inkscape:stockid="TriangleOutL"
       inkscape:isstock="true">
      <path
         transform="scale(0.8)"
         style="fill:context-stroke;fill-rule:evenodd;stroke:context-stroke;stroke-width:1pt"
         d="M 5.77,0 -2.88,5 V -5 Z"
         id="path25949" />
    </marker>
    <marker
       style="overflow:visible"
       id="Arrow2Lend"
       refX="0"
       refY="0"
       orient="auto"
       inkscape:stockid="Arrow2Lend"
       inkscape:isstock="true">
      <path
         transform="matrix(-1.1,0,0,-1.1,-1.1,0)"
         d="M 8.7185878,4.0337352 -2.2072895,0.01601326 8.7185884,-4.0017078 c -1.7454984,2.3720609 -1.7354408,5.6174519 -6e-7,8.035443 z"
         style="fill:context-stroke;fill-rule:evenodd;stroke:context-stroke;stroke-width:0.625;stroke-linejoin:round"
         id="path25678" />
    </marker>
    <marker
       id="ExperimentalArrow"
       refX="5"
       refY="3"
       orient="auto-start-reverse"
       inkscape:stockid="ExperimentalArrow"
       inkscape:isstock="true">
      <path
         style="fill:context-stroke"
         d="M 10,3 0,6 V 0 Z"
         id="path25910" />
    </marker>
    <marker
       style="overflow:visible"
       id="TriangleOutL"
       refX="0"
       refY="0"
       orient="auto"
       inkscape:stockid="TriangleOutL"
       inkscape:isstock="true">
      <path
         transform="scale(0.8)"
         style="fill:context-stroke;fill-rule:evenodd;stroke:context-stroke;stroke-width:1pt"
         d="M 5.77,0 -2.88,5 V -5 Z"
         id="path25799" />
    </marker>
    <marker
       style="overflow:visible"
       id="Arrow1Lend"
       refX="0"
       refY="0"
       orient="auto"
       inkscape:stockid="Arrow1Lend"
       inkscape:isstock="true">
      <path
         transform="matrix(-0.8,0,0,-0.8,-10,0)"
         style="fill:context-stroke;fill-rule:evenodd;stroke:context-stroke;stroke-width:1pt"
         d="M 0,0 5,-5 -12.5,0 5,5 Z"
         id="path25660" />
    </marker>
  </defs>
  <g
     inkscape:label="Layer 1"
     inkscape:groupmode="layer"
     id="layer1">
    <rect
       style="fill:#00a2ff;fill-opacity:0.8;stroke:#000000;stroke-width:0.195296;stroke-linecap:square"
       id="rect996"
       width="42.209751"
       height="23.679649"
       x="2.7635834"
       y="2.5607884" />
    <path
       d="M 0,0 V 52.916665 M 2.6458333,0 V 52.916665 M 5.2916665,0 V 52.916665 M 7.9374998,0 V 52.916665 M 10.583333,0 V 52.916665 M 13.229166,0 V 52.916665 M 15.875,0 V 52.916665 M 18.520833,0 V 52.916665 M 21.166666,0 V 52.916665 M 23.812499,0 V 52.916665 M 26.458332,0 V 52.916665 M 29.104166,0 V 52.916665 M 31.749999,0 V 52.916665 M 34.395832,0 V 52.916665 M 37.041665,0 V 52.916665 M 39.687499,0 V 52.916665 M 42.333332,0 V 52.916665 M 44.979165,0 V 52.916665 M 47.624999,0 V 52.916665 M 50.270832,0 V 52.916665 M 52.916665,0 V 52.916665 M 55.562498,0 V 52.916665 M 58.208332,0 V 52.916665 M 60.854165,0 V 52.916665 M 63.499998,0 V 52.916665 M 66.145831,0 V 52.916665 M 68.791665,0 V 52.916665 M 71.437498,0 V 52.916665 M 74.083331,0 V 52.916665 M 76.729164,0 V 52.916665 M 79.374998,0 V 52.916665 M 82.020831,0 V 52.916665 M 84.666664,0 V 52.916665 M 87.312497,0 V 52.916665 M 89.95833,0 V 52.916665 M 92.604164,0 V 52.916665 M 95.249997,0 V 52.916665 M 97.89583,0 V 52.916665 M 100.54166,0 V 52.916665 M 103.1875,0 V 52.916665 M 105.83333,0 V 52.916665 M 0,0 H 105.83333 M 0,2.6458333 H 105.83333 M 0,5.2916665 H 105.83333 M 0,7.9374998 H 105.83333 M 0,10.583333 H 105.83333 M 0,13.229166 H 105.83333 M 0,15.875 H 105.83333 M 0,18.520833 H 105.83333 M 0,21.166666 H 105.83333 M 0,23.812499 H 105.83333 M 0,26.458332 H 105.83333 M 0,29.104166 H 105.83333 M 0,31.749999 H 105.83333 M 0,34.395832 H 105.83333 M 0,37.041665 H 105.83333 M 0,39.687499 H 105.83333 M 0,42.333332 H 105.83333 M 0,44.979165 H 105.83333 M 0,47.624999 H 105.83333 M 0,50.270832 h 105.83333"
       style="fill:none;stroke:#000000;stroke-width:0.264583px"
       id="path1597" />
    <path
       d="M 105.83333,0 V 52.916665 M 108.47916,0 V 52.916665 M 111.125,0 V 52.916665 M 113.77083,0 V 52.916665 M 116.41666,0 V 52.916665 M 119.0625,0 V 52.916665 M 121.70833,0 V 52.916665 M 124.35416,0 V 52.916665 M 127,0 V 52.916665 M 129.64583,0 V 52.916665 M 132.29166,0 V 52.916665 M 134.9375,0 V 52.916665 M 137.58333,0 V 52.916665 M 140.22916,0 V 52.916665 M 142.87499,0 V 52.916665 M 145.52083,0 V 52.916665 M 148.16666,0 V 52.916665 M 150.81249,0 V 52.916665 M 153.45833,0 V 52.916665 M 156.10416,0 V 52.916665 M 158.74999,0 V 52.916665 M 161.39583,0 V 52.916665 M 164.04166,0 V 52.916665 M 166.68749,0 V 52.916665 M 169.33333,0 V 52.916665 M 171.97916,0 V 52.916665 M 174.62499,0 V 52.916665 M 177.27083,0 V 52.916665 M 179.91666,0 V 52.916665 M 182.56249,0 V 52.916665 M 185.20833,0 V 52.916665 M 187.85416,0 V 52.916665 M 190.49999,0 V 52.916665 M 193.14583,0 V 52.916665 M 195.79166,0 V 52.916665 M 198.43749,0 V 52.916665 M 201.08333,0 V 52.916665 M 203.72916,0 V 52.916665 M 206.37499,0 V 52.916665 M 209.02083,0 V 52.916665 M 211.66666,0 V 52.916665 M 105.83333,0 H 211.66666 M 105.83333,2.645833 H 211.66666 M 105.83333,5.291666 H 211.66666 M 105.83333,7.9375 H 211.66666 M 105.83333,10.583333 H 211.66666 M 105.83333,13.229166 H 211.66666 M 105.83333,15.875 h 105.83333 m -105.83333,2.645833 h 105.83333 m -105.83333,2.645833 h 105.83333 m -105.83333,2.645833 h 105.83333 m -105.83333,2.645833 h 105.83333 m -105.83333,2.645834 h 105.83333 m -105.83333,2.645833 h 105.83333 m -105.83333,2.645833 h 105.83333 m -105.83333,2.645833 h 105.83333 m -105.83333,2.645834 h 105.83333 m -105.83333,2.645833 h 105.83333 m -105.83333,2.645833 h 105.83333 m -105.83333,2.645834 h 105.83333 m -105.83333,2.645833 h 105.83333"
       style="fill:none;stroke:#000000;stroke-width:0.264583px"
       id="path1597-2" />
    <text
       xml:space="preserve"
       style="font-size:2.46944px;line-height:1.25;font-family:Arial;-inkscape-font-specification:Arial;word-spacing:0px;stroke-width:0.264583"
       x="91.089912"
       y="4.0354571"
       id="text24365"><tspan
         sodipodi:role="line"
         id="tspan24363"
         style="stroke-width:0.264583"
         x="91.089912"
         y="4.0354571" /></text>
    <rect
       style="fill:#ffffff;fill-opacity:1;stroke:#000000;stroke-width:0.264999;stroke-linecap:square"
       id="rect30535"
       width="15.875"
       height="13.229165"
       x="0"
       y="39.6875" />
    <rect
       style="fill:#00a2ff;fill-opacity:0.8;stroke:#000000;stroke-width:0.264999;stroke-linecap:square"
       id="rect30705"
       width="2.2230196"
       height="2.3697202"
       x="1.4083557"
       y="42.672997" />
    <text
       xml:space="preserve"
       style="font-size:5.29167px;line-height:1.25;font-family:Arial;-inkscape-font-specification:Arial;word-spacing:0px;stroke-width:0.264583"
       x="4.8043289"
       y="45.280567"
       id="text34449"><tspan
         sodipodi:role="line"
         id="tspan34447"
         style="font-size:5.29167px;stroke-width:0.264583"
         x="4.8043289"
         y="45.280567">on</tspan></text>
    <rect
       style="fill:#ad0000;fill-opacity:0.8;stroke:#000000;stroke-width:0.264999;stroke-linecap:square"
       id="rect30705-3"
       width="2.2230196"
       height="2.3697202"
       x="1.4083557"
       y="47.915218" />
    <text
       xml:space="preserve"
       style="font-size:5.29167px;line-height:1.25;font-family:Arial;-inkscape-font-specification:Arial;word-spacing:0px;stroke-width:0.264583"
       x="4.8043289"
       y="50.522789"
       id="text34449-6"><tspan
         sodipodi:role="line"
         id="tspan34447-7"
         style="font-size:5.29167px;stroke-width:0.264583"
         x="4.8043289"
         y="50.522789">off</tspan></text>
    <rect
       style="fill:#ad0000;fill-opacity:0.8;stroke:#000000;stroke-width:0.164502;stroke-linecap:square"
       id="rect38570"
       width="28.923294"
       height="29.028858"
       x="8.0285664"
       y="7.9594193" />
    <rect
       style="fill:#ad0000;fill-opacity:0.8;stroke:#000000;stroke-width:0.164502;stroke-linecap:square"
       id="rect38570-6"
       width="28.923294"
       height="29.028858"
       x="66.242722"
       y="8.1773148" />
    <rect
       style="fill:#ffffff;fill-opacity:1;stroke:#000000;stroke-width:0.216371;stroke-linecap:square"
       id="rect969"
       width="10.583332"
       height="52.916664"
       x="47.625"
       y="0" />
    <rect
       style="fill:#00a2ff;fill-opacity:0.8;stroke:#000000;stroke-width:0.264999;stroke-linecap:square"
       id="rect1268"
       width="5.1978054"
       height="5.5061803"
       x="61.044918"
       y="2.671134" />
    <rect
       style="fill:#00a2ff;fill-opacity:0.8;stroke:#000000;stroke-width:0.210367;stroke-linecap:square"
       id="rect1412"
       width="5.2524352"
       height="18.10318"
       x="61.017601"
       y="8.1499987" />
    <rect
       style="fill:#00a2ff;fill-opacity:0.8;stroke:#000000;stroke-width:0.264999;stroke-linecap:square"
       id="rect1414"
       width="28.923292"
       height="5.5061808"
       x="66.242722"
       y="2.671134" />
    <rect
       style="fill:#00a2ff;fill-opacity:0.8;stroke:#000000;stroke-width:0.264999;stroke-linecap:square"
       id="rect1416"
       width="7.9766359"
       height="5.1391482"
       x="95.166016"
       y="2.671134" />
    <rect
       style="fill:#00a2ff;fill-opacity:0.8;stroke:#000000;stroke-width:0.211558;stroke-linecap:square"
       id="rect1520"
       width="8.0300798"
       height="18.610506"
       x="95.139297"
       y="7.7835617" />
    <text
       xml:space="preserve"
       style="font-size:3.96875px;line-height:1.25;font-family:Arial;-inkscape-font-specification:Arial;word-spacing:0px;stroke-width:0.264583"
       x="62.42585"
       y="6.742662"
       id="text4266"><tspan
         sodipodi:role="line"
         id="tspan4264"
         style="font-size:3.96875px;stroke-width:0.264583"
         x="62.42585"
         y="6.742662">1</tspan></text>
    <text
       xml:space="preserve"
       style="font-size:3.96875px;line-height:1.25;font-family:Arial;-inkscape-font-specification:Arial;word-spacing:0px;stroke-width:0.264583"
       x="79.88279"
       y="6.742662"
       id="text6250"><tspan
         sodipodi:role="line"
         id="tspan6248"
         style="font-size:3.96875px;stroke-width:0.264583"
         x="79.88279"
         y="6.742662">2</tspan></text>
    <text
       xml:space="preserve"
       style="font-size:3.96875px;line-height:1.25;font-family:Arial;-inkscape-font-specification:Arial;word-spacing:0px;stroke-width:0.264583"
       x="98.077957"
       y="6.7174697"
       id="text7508"><tspan
         sodipodi:role="line"
         id="tspan7506"
         style="font-size:3.96875px;stroke-width:0.264583"
         x="98.077957"
         y="6.7174697">3</tspan></text>
    <text
       xml:space="preserve"
       style="font-size:3.96875px;line-height:1.25;font-family:Arial;-inkscape-font-specification:Arial;word-spacing:0px;stroke-width:0.264583"
       x="62.377617"
       y="21.395664"
       id="text9602"><tspan
         sodipodi:role="line"
         id="tspan9600"
         style="font-size:3.96875px;stroke-width:0.264583"
         x="62.377617"
         y="21.395664">4</tspan></text>
    <text
       xml:space="preserve"
       style="font-size:3.96875px;line-height:1.25;font-family:Arial;-inkscape-font-specification:Arial;word-spacing:0px;stroke-width:0.264583"
       x="98.07193"
       y="21.368534"
       id="text10684"><tspan
         sodipodi:role="line"
         id="tspan10682"
         style="font-size:3.96875px;stroke-width:0.264583"
         x="98.07193"
         y="21.368534">5</tspan></text>
    <path
       style="fill:none;stroke:#000000;stroke-width:1.5;stroke-linecap:butt;stroke-linejoin:miter;stroke-miterlimit:4;stroke-dasharray:none;stroke-opacity:1;marker-end:url(#TriangleOutM)"
       d="m 48.286763,17.458796 c 5.11714,-0.03772 5.11714,-0.03772 5.11714,-0.03772"
       id="path25575" />
    <rect
       style="fill:#ffffff;stroke:#000000;stroke-width:0.119166;stroke-linecap:square"
       id="rect1204"
       width="2.9869263"
       height="42.600372"
       x="108.41373"
       y="-0.065417223"
       inkscape:export-filename="/home/tobias/Documents/Blog/_assets/blogposts/AoC2021/rect1204.png"
       inkscape:export-xdpi="300"
       inkscape:export-ydpi="300" />
    <rect
       style="fill:#ffffff;stroke:#000000;stroke-width:0.11926;stroke-linecap:square"
       id="rect1209"
       width="50.238506"
       height="2.9966643"
       x="58.136543"
       y="39.693443" />
    <text
       xml:space="preserve"
       style="font-size:2.46944px;line-height:1.25;font-family:Arial;-inkscape-font-specification:Arial;word-spacing:0px;stroke-width:0.264583"
       x="58.768547"
       y="42.200462"
       id="text4931"><tspan
         sodipodi:role="line"
         id="tspan4929"
         style="stroke-width:0.264583"
         x="58.768547"
         y="42.200462">0</tspan></text>
    <text
       xml:space="preserve"
       style="font-size:2.46944px;line-height:1.25;font-family:Arial;-inkscape-font-specification:Arial;word-spacing:0px;stroke-width:0.264583"
       x="72.011948"
       y="42.184788"
       id="text4931-6"><tspan
         sodipodi:role="line"
         id="tspan4929-7"
         style="stroke-width:0.264583"
         x="72.011948"
         y="42.184788">5</tspan></text>
    <text
       xml:space="preserve"
       style="font-size:2.46944px;line-height:1.25;font-family:Arial;-inkscape-font-specification:Arial;word-spacing:0px;stroke-width:0.264583"
       x="84.91745"
       y="42.200466"
       id="text4931-5"><tspan
         sodipodi:role="line"
         id="tspan4929-3"
         style="stroke-width:0.264583"
         x="84.91745"
         y="42.200466">10</tspan></text>
    <text
       xml:space="preserve"
       style="font-size:2.46944px;line-height:1.25;font-family:Arial;-inkscape-font-specification:Arial;word-spacing:0px;stroke-width:0.264583"
       x="97.732635"
       y="42.200462"
       id="text19415"><tspan
         sodipodi:role="line"
         id="tspan19413"
         style="stroke-width:0.264583"
         x="97.732635"
         y="42.200462">15</tspan></text>
    <text
       xml:space="preserve"
       style="font-size:2.46944px;line-height:1.25;font-family:Arial;-inkscape-font-specification:Arial;word-spacing:0px;stroke-width:0.264583"
       x="109.24998"
       y="2.1316526"
       id="text22924"><tspan
         sodipodi:role="line"
         id="tspan22922"
         style="stroke-width:0.264583"
         x="109.24998"
         y="2.1316526">0</tspan></text>
    <text
       xml:space="preserve"
       style="font-size:2.46944px;line-height:1.25;font-family:Arial;-inkscape-font-specification:Arial;word-spacing:0px;stroke-width:0.264583"
       x="109.24998"
       y="15.442106"
       id="text26066"><tspan
         sodipodi:role="line"
         id="tspan26064"
         style="stroke-width:0.264583"
         x="109.24998"
         y="15.442106">5</tspan></text>
    <text
       xml:space="preserve"
       style="font-size:2.46944px;line-height:1.25;font-family:Arial;-inkscape-font-specification:Arial;word-spacing:0px;stroke-width:0.264583"
       x="108.55441"
       y="29.023804"
       id="text26066-5"><tspan
         sodipodi:role="line"
         id="tspan26064-6"
         style="stroke-width:0.264583"
         x="108.55441"
         y="29.023804">10</tspan></text>
  </g>
</svg>
